<svg height="512pt" viewBox="0 0 512 512" width="512pt" xmlns="http://www.w3.org/2000/svg"><path d="m501.453125 188.082031c-6.152344-6.152343-9.539063-14.332031-9.539063-23.03125s3.390626-16.878906 9.539063-23.03125l10.546875-10.542969-131.476562-131.476562-10.542969 10.546875c-6.152344 6.152344-14.332031 9.539063-23.03125 9.539063s-16.878907-3.386719-23.03125-9.539063l-10.546875-10.546875-45.609375 45.609375 21.089843 21.09375-21.089843 21.089844-21.089844-21.089844-246.671875 246.667969 10.546875 10.546875c6.152344 6.152343 9.539063 14.332031 9.539063 23.03125s-3.390626 16.878906-9.539063 23.03125l-10.546875 10.542969 131.476562 131.476562 10.542969-10.546875c6.152344-6.148437 14.332031-9.539063 23.03125-9.539063 8.703125 0 16.878907 3.390626 23.03125 9.539063l10.546875 10.546875 246.667969-246.671875-21.089844-21.089844 21.089844-21.089843 21.09375 21.089843 45.609375-45.609375zm-368.355469 226.933594-26.195312-26.195313-10.386719 10.390626-9.269531-9.273438 32.730468-32.730469 9.269532 9.273438-10.386719 10.382812 26.195313 26.195313zm29.234375-29.234375-35.464843-35.464844 11.957031-11.957031 35.464843 35.464844zm40.6875-39.0625c-11.402343 11.398438-27.414062 12.105469-38.304687 1.214844-10.894532-10.894532-10.183594-26.902344 1.214844-38.300782 6.941406-6.941406 14.949218-9.882812 23.003906-8.816406l-.8125 14.285156c-4.710938-.554687-8.714844.40625-11.90625 3.597657-4.964844 4.964843-4.863282 11.753906.558594 17.175781 5.417968 5.421875 12.207031 5.523438 17.175781.558594 3.191406-3.191406 4.152343-7.195313 3.597656-11.90625l14.285156-.8125c1.066407 8.058594-1.871093 16.0625-8.8125 23.003906zm45.648438-47.273438-20.621094-2.886718.304687 5.671875 8.765626 8.765625-11.753907 11.757812-35.464843-35.46875 11.753906-11.753906 12.867187 12.871094-1.214843-24.523438 13.019531-13.019531 1.417969 29.789063 34.757812 4.964843zm19.257812-19.253906-35.46875-35.46875 28.828125-28.828125 9.019532 9.019531-17.074219 17.074219 4.15625 4.15625 14.996093-15 8.613282 8.617188-14.996094 14.996093 4.660156 4.660157 17.730469-17.734375 9.019531 9.019531zm45.597657-45.601562-26.195313-26.195313-10.382813 10.386719-9.273437-9.269531 32.730469-32.730469 9.273437 9.269531-10.390625 10.386719 26.195313 26.195312zm-1.0625-102.097656-22.347657-22.347657 21.089844-21.09375 22.347656 22.351563zm44.699218 44.699218-22.351562-22.351562 21.089844-21.089844 22.351562 22.351562zm44.695313 44.699219-22.347657-22.351563 21.089844-21.089843 22.351563 22.347656zm0 0"/></svg>